<svg class="diagram-root" style="background: #f5f6f6" xmlns="http://www.w3.org/2000/svg" xmlns:xlink="http://www.w3.org/1999/xlink"><style>.diagram-root { font-family: "Helvetica Neue", sans-serif; font-size: 12px; } .t { overflow: visible; } .t-bg { y: 40; fill: #fff;   } .th { fill: #005aa0;   } .tht { fill: #fff; font-size: 14px;  } .tf { fill: #323c46; overflow: visible; } .tf.pk { fill: #005aa0; font-weight: bold; } .tf.fk { font-weight: bold; } .ty { fill: #adb1b5; font-weight: normal; text-anchor: end; } .r { fill: transparent; stroke: #c3c3c3; stroke-width: 1; } .l { stroke: 1; } .i { fill: #c2c7ce; stroke: #c2c7ce; } .i.ix { fill: #afb3b6; stroke: #000; } .fa { fill: transparent; overflow: visible; } .fa .bg.hover { fill: #f7f7f7; } .c { cy: 12; r: 4; stroke: #d2d2dc; fill: #d2d2dc; } .hr { fill: transparent; stroke: #323c46; stroke-opacity: 0.035; stroke-width: 13; } .dc { stroke: #fa5a3c; fill: #fa5a3c; } .x { stroke: white; stroke-width: 1; } .hl .th { fill: #1b9bff; } .hl .tht {  } .fhl .bg { fill: #e7f4ff; } .fhls .bg {  } .r.hl { stroke: #1b9bff; } .dim { opacity: 0.25; }</style><g class="drawing-wrapper" transform="translate(-157.99999999999963, 147.14285714285722) scale(1,1)"><g class="rs"><path d="M 863.4 174.86 m -1, 0 a 1,1 0 1,0 2,0 a 1,1 0 1,0 -2,0 M 863.4 174.86 m -0.5, 0 a 0.5,0.5 0 1,0 1,0 a 0.5,0.5 0 1,0 -1,0  M863.4 174.86 L863.4 174.86 875.4 174.86 M 863.4 180.86 m -1, 0 a 1,1 0 1,0 2,0 a 1,1 0 1,0 -2,0 M 863.4 180.86 m -0.5, 0 a 0.5,0.5 0 1,0 1,0 a 0.5,0.5 0 1,0 -1,0  M863.4 180.86 L863.4 180.86 870.4 174.86 863.4 168.86 M 863.4 168.86 m -1, 0 a 1,1 0 1,0 2,0 a 1,1 0 1,0 -2,0 M 863.4 168.86 m -0.5, 0 a 0.5,0.5 0 1,0 1,0 a 0.5,0.5 0 1,0 -1,0  M875.4 174.86 Q 908.91 174.86, 942.42 270.72 T 1009.43 366.57 M 1021.43 366.57 m -1, 0 a 1,1 0 1,0 2,0 a 1,1 0 1,0 -2,0 M 1021.43 366.57 m -0.5, 0 a 0.5,0.5 0 1,0 1,0 a 0.5,0.5 0 1,0 -1,0  M1021.43 366.57 L1021.43 366.57 1009.43 366.57 M1015.43 372.57 L1015.43 372.57 1015.43 360.57" id="h1537058300" class="r"></path><path d="M 461.36 361.29 m -1, 0 a 1,1 0 1,0 2,0 a 1,1 0 1,0 -2,0 M 461.36 361.29 m -0.5, 0 a 0.5,0.5 0 1,0 1,0 a 0.5,0.5 0 1,0 -1,0  M461.36 361.29 L461.36 361.29 473.36 361.29 M 461.36 367.29 m -1, 0 a 1,1 0 1,0 2,0 a 1,1 0 1,0 -2,0 M 461.36 367.29 m -0.5, 0 a 0.5,0.5 0 1,0 1,0 a 0.5,0.5 0 1,0 -1,0  M461.36 367.29 L461.36 367.29 468.36 361.29 461.36 355.29 M 461.36 355.29 m -1, 0 a 1,1 0 1,0 2,0 a 1,1 0 1,0 -2,0 M 461.36 355.29 m -0.5, 0 a 0.5,0.5 0 1,0 1,0 a 0.5,0.5 0 1,0 -1,0  M473.36 361.29 C 523.36 361.29, 579.076 158.43, 380.5 158.43 M 368.5 158.43 m -1, 0 a 1,1 0 1,0 2,0 a 1,1 0 1,0 -2,0 M 368.5 158.43 m -0.5, 0 a 0.5,0.5 0 1,0 1,0 a 0.5,0.5 0 1,0 -1,0  M368.5 158.43 L368.5 158.43 380.5 158.43 M374.5 164.43 L374.5 164.43 374.5 152.43" id="h1397587031" class="r"></path><path d="M 461.36 386.29 m -1, 0 a 1,1 0 1,0 2,0 a 1,1 0 1,0 -2,0 M 461.36 386.29 m -0.5, 0 a 0.5,0.5 0 1,0 1,0 a 0.5,0.5 0 1,0 -1,0  M461.36 386.29 L461.36 386.29 473.36 386.29 M 461.36 392.29 m -1, 0 a 1,1 0 1,0 2,0 a 1,1 0 1,0 -2,0 M 461.36 392.29 m -0.5, 0 a 0.5,0.5 0 1,0 1,0 a 0.5,0.5 0 1,0 -1,0  M461.36 392.29 L461.36 392.29 468.36 386.29 461.36 380.29 M 461.36 380.29 m -1, 0 a 1,1 0 1,0 2,0 a 1,1 0 1,0 -2,0 M 461.36 380.29 m -0.5, 0 a 0.5,0.5 0 1,0 1,0 a 0.5,0.5 0 1,0 -1,0  M473.36 386.29 Q 520.42 386.29, 567.47 268.08 T 661.57 149.86 M 673.57 149.86 m -1, 0 a 1,1 0 1,0 2,0 a 1,1 0 1,0 -2,0 M 673.57 149.86 m -0.5, 0 a 0.5,0.5 0 1,0 1,0 a 0.5,0.5 0 1,0 -1,0  M673.57 149.86 L673.57 149.86 661.57 149.86 M667.57 155.86 L667.57 155.86 667.57 143.86" id="h2286254435" class="r"></path><path d="M 456.36 -60.14 m -1, 0 a 1,1 0 1,0 2,0 a 1,1 0 1,0 -2,0 M 456.36 -60.14 m -0.5, 0 a 0.5,0.5 0 1,0 1,0 a 0.5,0.5 0 1,0 -1,0  M456.36 -60.14 L456.36 -60.14 468.36 -60.14 M 456.36 -54.14 m -1, 0 a 1,1 0 1,0 2,0 a 1,1 0 1,0 -2,0 M 456.36 -54.14 m -0.5, 0 a 0.5,0.5 0 1,0 1,0 a 0.5,0.5 0 1,0 -1,0  M456.36 -54.14 L456.36 -54.14 463.36 -60.14 456.36 -66.14 M 456.36 -66.14 m -1, 0 a 1,1 0 1,0 2,0 a 1,1 0 1,0 -2,0 M 456.36 -66.14 m -0.5, 0 a 0.5,0.5 0 1,0 1,0 a 0.5,0.5 0 1,0 -1,0  M468.36 -60.14 Q 516.67 -60.14, 564.97 44.86 T 661.57 149.86 M 673.57 149.86 m -1, 0 a 1,1 0 1,0 2,0 a 1,1 0 1,0 -2,0 M 673.57 149.86 m -0.5, 0 a 0.5,0.5 0 1,0 1,0 a 0.5,0.5 0 1,0 -1,0  M673.57 149.86 L673.57 149.86 661.57 149.86 M667.57 155.86 L667.57 155.86 667.57 143.86" id="h1139284389" class="r"></path><path d="M 456.36 -35.14 m -1, 0 a 1,1 0 1,0 2,0 a 1,1 0 1,0 -2,0 M 456.36 -35.14 m -0.5, 0 a 0.5,0.5 0 1,0 1,0 a 0.5,0.5 0 1,0 -1,0  M456.36 -35.14 L456.36 -35.14 468.36 -35.14 M 456.36 -29.14 m -1, 0 a 1,1 0 1,0 2,0 a 1,1 0 1,0 -2,0 M 456.36 -29.14 m -0.5, 0 a 0.5,0.5 0 1,0 1,0 a 0.5,0.5 0 1,0 -1,0  M456.36 -29.14 L456.36 -29.14 463.36 -35.14 456.36 -41.14 M 456.36 -41.14 m -1, 0 a 1,1 0 1,0 2,0 a 1,1 0 1,0 -2,0 M 456.36 -41.14 m -0.5, 0 a 0.5,0.5 0 1,0 1,0 a 0.5,0.5 0 1,0 -1,0  M468.36 -35.14 C 518.36 -35.14, 571.076 158.43, 380.5 158.43 M 368.5 158.43 m -1, 0 a 1,1 0 1,0 2,0 a 1,1 0 1,0 -2,0 M 368.5 158.43 m -0.5, 0 a 0.5,0.5 0 1,0 1,0 a 0.5,0.5 0 1,0 -1,0  M368.5 158.43 L368.5 158.43 380.5 158.43 M374.5 164.43 L374.5 164.43 374.5 152.43" id="h1607168654" class="r"></path><path d="M 1014.29 -18.709999999999994 m -1, 0 a 1,1 0 1,0 2,0 a 1,1 0 1,0 -2,0 M 1014.29 -18.709999999999994 m -0.5, 0 a 0.5,0.5 0 1,0 1,0 a 0.5,0.5 0 1,0 -1,0  M1014.29 -18.709999999999994 L1014.29 -18.709999999999994 1002.29 -18.709999999999994 M 1014.29 -12.709999999999994 m -1, 0 a 1,1 0 1,0 2,0 a 1,1 0 1,0 -2,0 M 1014.29 -12.709999999999994 m -0.5, 0 a 0.5,0.5 0 1,0 1,0 a 0.5,0.5 0 1,0 -1,0  M1014.29 -12.709999999999994 L1014.29 -12.709999999999994 1007.29 -18.709999999999994 1014.29 -24.709999999999994 M 1014.29 -24.709999999999994 m -1, 0 a 1,1 0 1,0 2,0 a 1,1 0 1,0 -2,0 M 1014.29 -24.709999999999994 m -0.5, 0 a 0.5,0.5 0 1,0 1,0 a 0.5,0.5 0 1,0 -1,0  M1002.29 -18.709999999999994 Q 970.57 -18.709999999999994, 938.85 65.58 T 875.4 149.86 M 863.4 149.86 m -1, 0 a 1,1 0 1,0 2,0 a 1,1 0 1,0 -2,0 M 863.4 149.86 m -0.5, 0 a 0.5,0.5 0 1,0 1,0 a 0.5,0.5 0 1,0 -1,0  M863.4 149.86 L863.4 149.86 875.4 149.86 M869.4 155.86 L869.4 155.86 869.4 143.86" id="h3177548053" class="r"></path></g><g class="hrs"></g><g class="ts"><svg width="179.81" height="100" x="1021.43" y="309.57" id="h311790747" class="t"><rect height="40" width="179.81" class="th"></rect><text x="13" y="25" class="tht">titles</text><rect height="60" width="179.81" class="t-bg"></rect><text x="13" y="61" class="tf pk">title_id<tspan x="166.81" class="ty">VARCHAR(10)</tspan></text><path d="M7,14A2,2 0 0,1 5,12A2,2 0 0,1 7,10A2,2 0 0,1 9,12A2,2 0 0,1 7,14M12.65,10C11.83,7.67 9.61,6 7, 6A6, 6 0 0, 0 1, 12A6, 6 0 0, 0 7, 18C9.61, 18 11.83, 16.33 12.65, 14H17V18H21V14H23V10H12.65Z" class="i pk" transform="translate(67.685, 48) scale(0.65)"></path><text x="13" y="86" class="tf">title<tspan x="166.81" class="ty">VARCHAR(30)</tspan></text></svg><svg width="188.5" height="100" x="180" y="101.43" id="h475896179" class="t"><rect height="40" width="188.5" class="th"></rect><text x="13" y="25" class="tht">departments</text><rect height="60" width="188.5" class="t-bg"></rect><text x="13" y="61" class="tf pk">dept_no<tspan x="175.5" class="ty">VARCHAR(10)</tspan></text><path d="M7,14A2,2 0 0,1 5,12A2,2 0 0,1 7,10A2,2 0 0,1 9,12A2,2 0 0,1 7,14M12.65,10C11.83,7.67 9.61,6 7, 6A6, 6 0 0, 0 1, 12A6, 6 0 0, 0 7, 18C9.61, 18 11.83, 16.33 12.65, 14H17V18H21V14H23V10H12.65Z" class="i pk" transform="translate(76.375, 48) scale(0.65)"></path><text x="13" y="86" class="tf">dept_name<tspan x="175.5" class="ty">VARCHAR(30)</tspan></text></svg><svg width="189.83" height="225" x="673.57" y="92.86" id="h1639608377" class="t"><rect height="40" width="189.83" class="th"></rect><text x="13" y="25" class="tht">employees</text><rect height="185" width="189.83" class="t-bg"></rect><text x="13" y="61" class="tf pk">emp_no<tspan x="176.83" class="ty">INT</tspan></text><path d="M7,14A2,2 0 0,1 5,12A2,2 0 0,1 7,10A2,2 0 0,1 9,12A2,2 0 0,1 7,14M12.65,10C11.83,7.67 9.61,6 7, 6A6, 6 0 0, 0 1, 12A6, 6 0 0, 0 7, 18C9.61, 18 11.83, 16.33 12.65, 14H17V18H21V14H23V10H12.65Z" class="i pk" transform="translate(137.499921875, 48) scale(0.65)"></path><text x="13" y="86" class="tf fk">emp_title_id<tspan x="176.83" class="ty">VARCHAR(10)</tspan></text><text x="13" y="111" class="tf">birth_date<tspan x="176.83" class="ty">DATE</tspan></text><text x="13" y="136" class="tf">first_name<tspan x="176.83" class="ty">VARCHAR(30)</tspan></text><text x="13" y="161" class="tf">last_name<tspan x="176.83" class="ty">VARCHAR(30)</tspan></text><text x="13" y="186" class="tf">sex<tspan x="176.83" class="ty">VARCHAR(1)</tspan></text><text x="13" y="211" class="tf">hire_date<tspan x="176.83" class="ty">DATE</tspan></text></svg><svg width="168.5" height="100" x="292.86" y="304.29" id="h1676682957" class="t"><rect height="40" width="168.5" class="th"></rect><text x="13" y="25" class="tht">dept_manager</text><rect height="60" width="168.5" class="t-bg"></rect><text x="13" y="61" class="tf fk">dept_no<tspan x="155.5" class="ty">VARCHAR(10)</tspan></text><text x="13" y="86" class="tf fk">emp_no<tspan x="155.5" class="ty">INT</tspan></text></svg><svg width="168.5" height="100" x="287.86" y="-117.14" id="h1090417462" class="t"><rect height="40" width="168.5" class="th"></rect><text x="13" y="25" class="tht">dept_emp</text><rect height="60" width="168.5" class="t-bg"></rect><text x="13" y="61" class="tf fk">emp_no<tspan x="155.5" class="ty">INT</tspan></text><text x="13" y="86" class="tf fk">dept_no<tspan x="155.5" class="ty">VARCHAR(10)</tspan></text></svg><svg width="108.7" height="100" x="1014.29" y="-75.71" id="h2472833127" class="t"><rect height="40" width="108.7" class="th"></rect><text x="13" y="25" class="tht">salaries</text><rect height="60" width="108.7" class="t-bg"></rect><text x="13" y="61" class="tf fk">emp_no<tspan x="95.7" class="ty">INT</tspan></text><text x="13" y="86" class="tf">salary<tspan x="95.7" class="ty">INT</tspan></text></svg></g></g><text class="qdbd-link" x="10" y="20">www.quickdatabasediagrams.com</text></svg>